<?xml version="1.0" encoding="UTF-8" standalone="no"?>
<!DOCTYPE svg PUBLIC "-//W3C//DTD SVG 1.1//EN"
 "http://www.w3.org/Graphics/SVG/1.1/DTD/svg11.dtd">
<!-- Generated by graphviz version 14.1.2 (0)
 -->
<!-- Title: DRC_Toolchain Pages: 1 -->
<svg width="1431pt" height="903pt"
 viewBox="0.00 0.00 1431.00 903.00" xmlns="http://www.w3.org/2000/svg" xmlns:xlink="http://www.w3.org/1999/xlink">
<g id="graph0" class="graph" transform="scale(1 1) rotate(0) translate(21.6 881.84)">
<title>DRC_Toolchain</title>
<polygon fill="white" stroke="none" points="-21.6,21.6 -21.6,-881.84 1409.6,-881.84 1409.6,21.6 -21.6,21.6"/>
<g id="clust1" class="cluster">
<title>cluster_stage1</title>
<polygon fill="#f4f6f7" stroke="#bdc3c7" stroke-dasharray="5,2" points="8,-521.65 8,-852.24 377,-852.24 377,-521.65 8,-521.65"/>
<text xml:space="preserve" text-anchor="middle" x="192.5" y="-836.84" font-family="DejaVu Sans, Arial, sans-serif" font-size="12.00" fill="#2c3e50">Stage 1: Offline Mathematical Synthesis (Host Workstation)</text>
</g>
<g id="clust2" class="cluster">
<title>cluster_stage2</title>
<polygon fill="#ebf5fb" stroke="#bdc3c7" stroke-dasharray="5,2" points="385,-293.59 385,-615.43 970,-615.43 970,-293.59 385,-293.59"/>
<text xml:space="preserve" text-anchor="middle" x="677.5" y="-600.03" font-family="DejaVu Sans, Arial, sans-serif" font-size="12.00" fill="#2c3e50">Stage 2: Quantization, Packaging &amp; ABI Serialization</text>
</g>
<g id="clust3" class="cluster">
<title>cluster_targets</title>
<polygon fill="#ffffff" stroke="#aed6f1" points="393,-301.59 393,-393.87 962,-393.87 962,-301.59 393,-301.59"/>
<text xml:space="preserve" text-anchor="middle" x="677.5" y="-379.89" font-family="DejaVu Sans, Arial, sans-serif" font-size="10.50" fill="#1f618d">Production Packaging Targets</text>
</g>
<g id="clust4" class="cluster">
<title>cluster_stage3</title>
<polygon fill="#fef9e7" stroke="#bdc3c7" stroke-dasharray="5,2" points="978,-8 978,-388.99 1380,-388.99 1380,-8 978,-8"/>
<text xml:space="preserve" text-anchor="middle" x="1179" y="-373.59" font-family="DejaVu Sans, Arial, sans-serif" font-size="12.00" fill="#2c3e50">Stage 3: Live In&#45;System Injection &amp; DSP Verification (Target DUT)</text>
</g>
<!-- spec -->
<g id="node1" class="node">
<title>spec</title>
<path fill="#e8f8f5" stroke="#1abc9c" stroke-width="1.8" d="M325.68,-821.99C325.68,-821.99 108.32,-821.99 108.32,-821.99 102.32,-821.99 96.33,-815.99 96.33,-809.99 96.33,-809.99 96.33,-765.71 96.33,-765.71 96.33,-759.71 102.33,-753.71 108.33,-753.71 108.33,-753.71 325.68,-753.71 325.68,-753.71 331.68,-753.71 337.68,-759.71 337.68,-765.71 337.68,-765.71 337.68,-809.99 337.68,-809.99 337.68,-815.99 331.68,-821.99 325.68,-821.99"/>
<text xml:space="preserve" text-anchor="middle" x="217" y="-803.37" font-family="DejaVu Sans, Arial, sans-serif" font-size="10.50">Acoustic Measurement &amp; Requirements</text>
<text xml:space="preserve" text-anchor="middle" x="217" y="-790.62" font-family="DejaVu Sans, Arial, sans-serif" font-size="10.50">• Speaker Excursion Limit (Xmax)</text>
<text xml:space="preserve" text-anchor="middle" x="217" y="-777.87" font-family="DejaVu Sans, Arial, sans-serif" font-size="10.50">• Voice Coil Thermal Dissipation</text>
<text xml:space="preserve" text-anchor="middle" x="217" y="-765.12" font-family="DejaVu Sans, Arial, sans-serif" font-size="10.50">• Microphone Sensitivity &amp; Dynamic Span</text>
</g>
<!-- octave -->
<g id="node2" class="node">
<title>octave</title>
<path fill="#fef9e7" stroke="#f39c12" stroke-width="2" d="M356.8,-712.71C356.8,-712.71 77.2,-712.71 77.2,-712.71 71.2,-712.71 65.2,-706.71 65.2,-700.71 65.2,-700.71 65.2,-656.43 65.2,-656.43 65.2,-650.43 71.2,-644.43 77.2,-644.43 77.2,-644.43 356.8,-644.43 356.8,-644.43 362.8,-644.43 368.8,-650.43 368.8,-656.43 368.8,-656.43 368.8,-700.71 368.8,-700.71 368.8,-706.71 362.8,-712.71 356.8,-712.71"/>
<text xml:space="preserve" text-anchor="middle" x="217" y="-694.09" font-family="DejaVu Sans, Arial, sans-serif" font-size="10.50">GNU Octave / MATLAB Tuning Suite</text>
<text xml:space="preserve" text-anchor="middle" x="217" y="-681.34" font-family="DejaVu Sans, Arial, sans-serif" font-size="10.50">• sof_example_drc.m / sof_example_multiband_drc.m</text>
<text xml:space="preserve" text-anchor="middle" x="217" y="-668.59" font-family="DejaVu Sans, Arial, sans-serif" font-size="10.50">• Threshold, Knee, Ratio, Attack, Release, Post&#45;Gain</text>
<text xml:space="preserve" text-anchor="middle" x="217" y="-655.84" font-family="DejaVu Sans, Arial, sans-serif" font-size="10.50">• 4&#45;Zone Release Fitting (kA..kE)</text>
</g>
<!-- spec&#45;&gt;octave -->
<g id="edge1" class="edge">
<title>spec&#45;&gt;octave</title>
<path fill="none" stroke="#2c3e50" stroke-width="1.5" d="M217,-752.91C217,-744.3 217,-734.9 217,-725.8"/>
<polygon fill="#2c3e50" stroke="#2c3e50" stroke-width="1.5" points="220.5,-725.93 217,-715.93 213.5,-725.93 220.5,-725.93"/>
</g>
<!-- plot -->
<g id="node3" class="node">
<title>plot</title>
<path fill="#fcf3cf" stroke="#d68910" stroke-width="1.5" d="M325.68,-585.18C325.68,-585.18 108.32,-585.18 108.32,-585.18 102.32,-585.18 96.33,-579.18 96.33,-573.18 96.33,-573.18 96.33,-541.65 96.33,-541.65 96.33,-535.65 102.33,-529.65 108.33,-529.65 108.33,-529.65 325.68,-529.65 325.68,-529.65 331.68,-529.65 337.68,-535.65 337.68,-541.65 337.68,-541.65 337.68,-573.18 337.68,-573.18 337.68,-579.18 331.68,-585.18 325.68,-585.18"/>
<text xml:space="preserve" text-anchor="middle" x="217" y="-566.56" font-family="DejaVu Sans, Arial, sans-serif" font-size="10.50">Curve Inspection &amp; Visualization</text>
<text xml:space="preserve" text-anchor="middle" x="217" y="-553.81" font-family="DejaVu Sans, Arial, sans-serif" font-size="10.50">• sof_drc_plot_db_curve.m</text>
<text xml:space="preserve" text-anchor="middle" x="217" y="-541.06" font-family="DejaVu Sans, Arial, sans-serif" font-size="10.50">• Decibel Transfer Verification (Slope 1/R)</text>
</g>
<!-- octave&#45;&gt;plot -->
<g id="edge2" class="edge">
<title>octave&#45;&gt;plot</title>
<path fill="none" stroke="#2c3e50" stroke-width="1.5" d="M217,-643.74C217,-629.45 217,-612.7 217,-597.84"/>
<polygon fill="#2c3e50" stroke="#2c3e50" stroke-width="1.5" points="220.5,-598.18 217,-588.18 213.5,-598.18 220.5,-598.18"/>
</g>
<!-- quant -->
<g id="node4" class="node">
<title>quant</title>
<path fill="#d4e6f1" stroke="#2980b9" stroke-width="1.8" d="M663.05,-585.18C663.05,-585.18 498.95,-585.18 498.95,-585.18 492.95,-585.18 486.95,-579.18 486.95,-573.18 486.95,-573.18 486.95,-541.65 486.95,-541.65 486.95,-535.65 492.95,-529.65 498.95,-529.65 498.95,-529.65 663.05,-529.65 663.05,-529.65 669.05,-529.65 675.05,-535.65 675.05,-541.65 675.05,-541.65 675.05,-573.18 675.05,-573.18 675.05,-579.18 669.05,-585.18 663.05,-585.18"/>
<text xml:space="preserve" text-anchor="middle" x="581" y="-566.56" font-family="DejaVu Sans, Arial, sans-serif" font-size="10.50">Fixed&#45;Point Struct Quantization</text>
<text xml:space="preserve" text-anchor="middle" x="581" y="-553.81" font-family="DejaVu Sans, Arial, sans-serif" font-size="10.50">• Q8.24, Q2.30, Q12.20, Q20.12</text>
<text xml:space="preserve" text-anchor="middle" x="581" y="-541.06" font-family="DejaVu Sans, Arial, sans-serif" font-size="10.50">• sof_drc_generate_config.m</text>
</g>
<!-- octave&#45;&gt;quant -->
<g id="edge3" class="edge">
<title>octave&#45;&gt;quant</title>
<path fill="none" stroke="#2c3e50" stroke-width="1.5" d="M320.82,-643.58C372.48,-626.67 434.52,-606.37 485.06,-589.82"/>
<polygon fill="#2c3e50" stroke="#2c3e50" stroke-width="1.5" points="486.07,-593.17 494.49,-586.73 483.9,-586.52 486.07,-593.17"/>
</g>
<!-- abi -->
<g id="node5" class="node">
<title>abi</title>
<path fill="#aed6f1" stroke="#1f618d" stroke-width="2" d="M806.42,-488.65C806.42,-488.65 545.58,-488.65 545.58,-488.65 539.58,-488.65 533.58,-482.65 533.58,-476.65 533.58,-476.65 533.58,-445.12 533.58,-445.12 533.58,-439.12 539.58,-433.12 545.58,-433.12 545.58,-433.12 806.42,-433.12 806.42,-433.12 812.42,-433.12 818.42,-439.12 818.42,-445.12 818.42,-445.12 818.42,-476.65 818.42,-476.65 818.42,-482.65 812.42,-488.65 806.42,-488.65"/>
<text xml:space="preserve" text-anchor="middle" x="676" y="-470.03" font-family="DejaVu Sans, Arial, sans-serif" font-size="10.50">SOF ABI Header Packaging</text>
<text xml:space="preserve" text-anchor="middle" x="676" y="-457.28" font-family="DejaVu Sans, Arial, sans-serif" font-size="10.50">• struct sof_abi_hdr (magic: 0x00464f53)</text>
<text xml:space="preserve" text-anchor="middle" x="676" y="-444.53" font-family="DejaVu Sans, Arial, sans-serif" font-size="10.50">• IPC3 vs IPC4 Serialization (sof_drc_build_blob.m)</text>
</g>
<!-- quant&#45;&gt;abi -->
<g id="edge4" class="edge">
<title>quant&#45;&gt;abi</title>
<path fill="none" stroke="#2c3e50" stroke-width="1.5" d="M608.73,-528.82C618.49,-519.11 629.6,-508.06 639.94,-497.77"/>
<polygon fill="#2c3e50" stroke="#2c3e50" stroke-width="1.5" points="642.17,-500.49 646.79,-490.95 637.23,-495.53 642.17,-500.49"/>
</g>
<!-- tplg -->
<g id="node6" class="node">
<title>tplg</title>
<path fill="#e8daef" stroke="#8e44ad" stroke-width="1.5" d="M550.55,-365.12C550.55,-365.12 413.45,-365.12 413.45,-365.12 407.45,-365.12 401.45,-359.12 401.45,-353.12 401.45,-353.12 401.45,-321.59 401.45,-321.59 401.45,-315.59 407.45,-309.59 413.45,-309.59 413.45,-309.59 550.55,-309.59 550.55,-309.59 556.55,-309.59 562.55,-315.59 562.55,-321.59 562.55,-321.59 562.55,-353.12 562.55,-353.12 562.55,-359.12 556.55,-365.12 550.55,-365.12"/>
<text xml:space="preserve" text-anchor="middle" x="482" y="-346.5" font-family="DejaVu Sans, Arial, sans-serif" font-size="10.50">ALSA Topology 2</text>
<text xml:space="preserve" text-anchor="middle" x="482" y="-333.75" font-family="DejaVu Sans, Arial, sans-serif" font-size="10.50">(.conf / .tplg)</text>
<text xml:space="preserve" text-anchor="middle" x="482" y="-321" font-family="DejaVu Sans, Arial, sans-serif" font-size="10.50">Build&#45;Time Driver Defaults</text>
</g>
<!-- abi&#45;&gt;tplg -->
<g id="edge5" class="edge">
<title>abi&#45;&gt;tplg</title>
<path fill="none" stroke="#2c3e50" stroke-width="1.5" d="M631.98,-432.31C603.58,-414.52 566.44,-391.25 536.22,-372.32"/>
<polygon fill="#2c3e50" stroke="#2c3e50" stroke-width="1.5" points="538.1,-369.37 527.77,-367.03 534.39,-375.3 538.1,-369.37"/>
</g>
<!-- ucm -->
<g id="node7" class="node">
<title>ucm</title>
<path fill="#e8daef" stroke="#8e44ad" stroke-width="1.5" d="M745.67,-365.12C745.67,-365.12 606.33,-365.12 606.33,-365.12 600.33,-365.12 594.33,-359.12 594.33,-353.12 594.33,-353.12 594.33,-321.59 594.33,-321.59 594.33,-315.59 600.33,-309.59 606.33,-309.59 606.33,-309.59 745.67,-309.59 745.67,-309.59 751.67,-309.59 757.67,-315.59 757.67,-321.59 757.67,-321.59 757.67,-353.12 757.67,-353.12 757.67,-359.12 751.67,-365.12 745.67,-365.12"/>
<text xml:space="preserve" text-anchor="middle" x="676" y="-346.5" font-family="DejaVu Sans, Arial, sans-serif" font-size="10.50">ALSA UCM2 Profile</text>
<text xml:space="preserve" text-anchor="middle" x="676" y="-333.75" font-family="DejaVu Sans, Arial, sans-serif" font-size="10.50">(/usr/share/alsa/ucm2/)</text>
<text xml:space="preserve" text-anchor="middle" x="676" y="-321" font-family="DejaVu Sans, Arial, sans-serif" font-size="10.50">Per&#45;Device Acoustic Config</text>
</g>
<!-- abi&#45;&gt;ucm -->
<g id="edge6" class="edge">
<title>abi&#45;&gt;ucm</title>
<path fill="none" stroke="#2c3e50" stroke-width="1.5" d="M676,-432.31C676,-416.23 676,-395.67 676,-377.89"/>
<polygon fill="#2c3e50" stroke="#2c3e50" stroke-width="1.5" points="679.5,-378.09 676,-368.09 672.5,-378.09 679.5,-378.09"/>
</g>
<!-- state -->
<g id="node8" class="node">
<title>state</title>
<path fill="#e8daef" stroke="#8e44ad" stroke-width="1.5" d="M942.05,-365.12C942.05,-365.12 801.95,-365.12 801.95,-365.12 795.95,-365.12 789.95,-359.12 789.95,-353.12 789.95,-353.12 789.95,-321.59 789.95,-321.59 789.95,-315.59 795.95,-309.59 801.95,-309.59 801.95,-309.59 942.05,-309.59 942.05,-309.59 948.05,-309.59 954.05,-315.59 954.05,-321.59 954.05,-321.59 954.05,-353.12 954.05,-353.12 954.05,-359.12 948.05,-365.12 942.05,-365.12"/>
<text xml:space="preserve" text-anchor="middle" x="872" y="-346.5" font-family="DejaVu Sans, Arial, sans-serif" font-size="10.50">ALSA asound.state</text>
<text xml:space="preserve" text-anchor="middle" x="872" y="-333.75" font-family="DejaVu Sans, Arial, sans-serif" font-size="10.50">(/var/lib/alsa/asound.state)</text>
<text xml:space="preserve" text-anchor="middle" x="872" y="-321" font-family="DejaVu Sans, Arial, sans-serif" font-size="10.50">systemd Boot Restoration</text>
</g>
<!-- abi&#45;&gt;state -->
<g id="edge7" class="edge">
<title>abi&#45;&gt;state</title>
<path fill="none" stroke="#2c3e50" stroke-width="1.5" d="M720.48,-432.31C749.29,-414.44 787.02,-391.05 817.62,-372.07"/>
<polygon fill="#2c3e50" stroke="#2c3e50" stroke-width="1.5" points="819.12,-375.26 825.77,-367.02 815.43,-369.31 819.12,-375.26"/>
</g>
<!-- scp -->
<g id="node9" class="node">
<title>scp</title>
<path fill="#fcf3cf" stroke="#f39c12" stroke-width="1.5" d="M1222.8,-358.74C1222.8,-358.74 1027.2,-358.74 1027.2,-358.74 1021.2,-358.74 1015.2,-352.74 1015.2,-346.74 1015.2,-346.74 1015.2,-327.96 1015.2,-327.96 1015.2,-321.96 1021.2,-315.96 1027.2,-315.96 1027.2,-315.96 1222.8,-315.96 1222.8,-315.96 1228.8,-315.96 1234.8,-321.96 1234.8,-327.96 1234.8,-327.96 1234.8,-346.74 1234.8,-346.74 1234.8,-352.74 1228.8,-358.74 1222.8,-358.74"/>
<text xml:space="preserve" text-anchor="middle" x="1125" y="-340.13" font-family="DejaVu Sans, Arial, sans-serif" font-size="10.50">Secure Copy to Target DUT</text>
<text xml:space="preserve" text-anchor="middle" x="1125" y="-327.38" font-family="DejaVu Sans, Arial, sans-serif" font-size="10.50">scp drc_tuning.bin root@&lt;dut&gt;:/tmp/</text>
</g>
<!-- abi&#45;&gt;scp -->
<g id="edge8" class="edge">
<title>abi&#45;&gt;scp</title>
<path fill="none" stroke="#2c3e50" stroke-width="1.5" d="M815.98,-432.14C865.03,-421.44 920.26,-408.3 970,-393.87 999.9,-385.19 1032.43,-373.85 1059.92,-363.68"/>
<polygon fill="#2c3e50" stroke="#2c3e50" stroke-width="1.5" points="1061.1,-366.97 1069.25,-360.19 1058.66,-360.41 1061.1,-366.97"/>
<text xml:space="preserve" text-anchor="middle" x="979.4" y="-404.57" font-family="DejaVu Sans, Arial, sans-serif" font-size="9.00"> Binary Blob (.bin)</text>
</g>
<!-- ctl -->
<g id="node10" class="node">
<title>ctl</title>
<path fill="#d4efdf" stroke="#27ae60" stroke-width="2" d="M1310.3,-264.59C1310.3,-264.59 997.7,-264.59 997.7,-264.59 991.7,-264.59 985.7,-258.59 985.7,-252.59 985.7,-252.59 985.7,-221.06 985.7,-221.06 985.7,-215.06 991.7,-209.06 997.7,-209.06 997.7,-209.06 1310.3,-209.06 1310.3,-209.06 1316.3,-209.06 1322.3,-215.06 1322.3,-221.06 1322.3,-221.06 1322.3,-252.59 1322.3,-252.59 1322.3,-258.59 1316.3,-264.59 1310.3,-264.59"/>
<text xml:space="preserve" text-anchor="middle" x="1154" y="-245.97" font-family="DejaVu Sans, Arial, sans-serif" font-size="10.50">Live Parameter Injection (sof&#45;ctl)</text>
<text xml:space="preserve" text-anchor="middle" x="1154" y="-233.22" font-family="DejaVu Sans, Arial, sans-serif" font-size="10.50">sof&#45;ctl &#45;Dhw:0 &#45;i 4 &#45;n &lt;numid&gt; &#45;p 1 &#45;b &#45;s /tmp/drc_tuning.bin</text>
<text xml:space="preserve" text-anchor="middle" x="1154" y="-220.47" font-family="DejaVu Sans, Arial, sans-serif" font-size="10.50">Zero Interruption to Active Audio Stream</text>
</g>
<!-- scp&#45;&gt;ctl -->
<g id="edge9" class="edge">
<title>scp&#45;&gt;ctl</title>
<path fill="none" stroke="#2c3e50" stroke-width="1.5" d="M1131.15,-315.46C1134.43,-304.3 1138.59,-290.2 1142.45,-277.08"/>
<polygon fill="#2c3e50" stroke="#2c3e50" stroke-width="1.5" points="1145.77,-278.19 1145.24,-267.6 1139.05,-276.21 1145.77,-278.19"/>
</g>
<!-- verify -->
<g id="node11" class="node">
<title>verify</title>
<path fill="#d5f5e3" stroke="#229954" stroke-width="1.8" d="M1275.8,-168.06C1275.8,-168.06 1032.2,-168.06 1032.2,-168.06 1026.2,-168.06 1020.2,-162.06 1020.2,-156.06 1020.2,-156.06 1020.2,-124.53 1020.2,-124.53 1020.2,-118.53 1026.2,-112.53 1032.2,-112.53 1032.2,-112.53 1275.8,-112.53 1275.8,-112.53 1281.8,-112.53 1287.8,-118.53 1287.8,-124.53 1287.8,-124.53 1287.8,-156.06 1287.8,-156.06 1287.8,-162.06 1281.8,-168.06 1275.8,-168.06"/>
<text xml:space="preserve" text-anchor="middle" x="1154" y="-149.45" font-family="DejaVu Sans, Arial, sans-serif" font-size="10.50">DSP Memory Readback &amp; bit&#45;exact Verification</text>
<text xml:space="preserve" text-anchor="middle" x="1154" y="-136.7" font-family="DejaVu Sans, Arial, sans-serif" font-size="10.50">sof&#45;ctl &#45;o /tmp/drc_readback.bin &amp;&amp; cmp ...</text>
<text xml:space="preserve" text-anchor="middle" x="1154" y="-123.95" font-family="DejaVu Sans, Arial, sans-serif" font-size="10.50">mtrace Firmware Trace Log Confirmation</text>
</g>
<!-- ctl&#45;&gt;verify -->
<g id="edge10" class="edge">
<title>ctl&#45;&gt;verify</title>
<path fill="none" stroke="#2c3e50" stroke-width="1.5" d="M1154,-208.23C1154,-199.69 1154,-190.1 1154,-180.91"/>
<polygon fill="#2c3e50" stroke="#2c3e50" stroke-width="1.5" points="1157.5,-181.03 1154,-171.03 1150.5,-181.03 1157.5,-181.03"/>
</g>
<!-- acoustic -->
<g id="node12" class="node">
<title>acoustic</title>
<path fill="#d4efdf" stroke="#27ae60" stroke-width="2" d="M1259.3,-71.53C1259.3,-71.53 1048.7,-71.53 1048.7,-71.53 1042.7,-71.53 1036.7,-65.53 1036.7,-59.53 1036.7,-59.53 1036.7,-28 1036.7,-28 1036.7,-22 1042.7,-16 1048.7,-16 1048.7,-16 1259.3,-16 1259.3,-16 1265.3,-16 1271.3,-22 1271.3,-28 1271.3,-28 1271.3,-59.53 1271.3,-59.53 1271.3,-65.53 1265.3,-71.53 1259.3,-71.53"/>
<text xml:space="preserve" text-anchor="middle" x="1154" y="-52.91" font-family="DejaVu Sans, Arial, sans-serif" font-size="10.50">Acoustic Measurement Validation</text>
<text xml:space="preserve" text-anchor="middle" x="1154" y="-40.16" font-family="DejaVu Sans, Arial, sans-serif" font-size="10.50">Stepped Sine Wave Test Tone Playback</text>
<text xml:space="preserve" text-anchor="middle" x="1154" y="-27.41" font-family="DejaVu Sans, Arial, sans-serif" font-size="10.50">Measurement Mic / Analyzer Verification</text>
</g>
<!-- verify&#45;&gt;acoustic -->
<g id="edge11" class="edge">
<title>verify&#45;&gt;acoustic</title>
<path fill="none" stroke="#2c3e50" stroke-width="1.5" d="M1154,-111.7C1154,-103.16 1154,-93.57 1154,-84.38"/>
<polygon fill="#2c3e50" stroke="#2c3e50" stroke-width="1.5" points="1157.5,-84.5 1154,-74.5 1150.5,-84.5 1157.5,-84.5"/>
</g>
</g>
</svg>
